<mxfile host="drawio-plugin" modified="2023-09-24T19:43:35.136Z" agent="5.0 (Windows NT 10.0; Win64; x64) AppleWebKit/537.36 (KHTML, like Gecko) Chrome/111.0.0.0 Safari/537.36" etag="noUyfA_pe9SJ5cWOTyD4" version="20.5.3" type="embed"><diagram name="Seite-1" id="-2VjJTFV00PebQVn-Hf1"><mxGraphModel dx="1428" dy="772" grid="1" gridSize="10" guides="1" tooltips="1" connect="1" arrows="1" fold="1" page="1" pageScale="1" pageWidth="827" pageHeight="1169" math="0" shadow="0"><root><mxCell id="0"/><mxCell id="1" parent="0"/><mxCell id="32" value="" style="group" parent="1" vertex="1" connectable="0"><mxGeometry x="-290" y="90" width="1150" height="674.0751506164298" as="geometry"/></mxCell><mxCell id="2" value="" style="group" parent="32" vertex="1" connectable="0"><mxGeometry x="-10" y="62.713926126633964" width="1160" height="611.3612244897959" as="geometry"/></mxCell><mxCell id="99" value="" style="group" parent="2" vertex="1" connectable="0"><mxGeometry y="-22.718775510204082" width="1160" height="580" as="geometry"/></mxCell><mxCell id="ngzUgmsreJfInocwCasy-2" value="CAN_MessageManager" style="shape=module;align=left;spacingLeft=20;align=center;verticalAlign=top;whiteSpace=wrap;html=1;" parent="99" vertex="1"><mxGeometry width="1120" height="580" as="geometry"/></mxCell><mxCell id="ngzUgmsreJfInocwCasy-3" value="CAN_Transceiver" style="swimlane;fontStyle=1;align=center;verticalAlign=top;childLayout=stackLayout;horizontal=1;startSize=26;horizontalStack=0;resizeParent=1;resizeParentMax=0;resizeLast=0;collapsible=1;marginBottom=0;whiteSpace=wrap;html=1;" parent="99" vertex="1"><mxGeometry x="40" y="363.7498866213152" width="332.79" height="160.8395061728395" as="geometry"/></mxCell><mxCell id="ngzUgmsreJfInocwCasy-4" value="- can_message" style="text;strokeColor=none;fillColor=none;align=left;verticalAlign=top;spacingLeft=4;spacingRight=4;overflow=hidden;rotatable=0;points=[[0,0.5],[1,0.5]];portConstraint=eastwest;whiteSpace=wrap;html=1;" parent="ngzUgmsreJfInocwCasy-3" vertex="1"><mxGeometry y="26" width="332.79" height="40.76543209876543" as="geometry"/></mxCell><mxCell id="ngzUgmsreJfInocwCasy-5" value="" style="line;strokeWidth=1;fillColor=none;align=left;verticalAlign=middle;spacingTop=-1;spacingLeft=3;spacingRight=3;rotatable=0;labelPosition=right;points=[];portConstraint=eastwest;strokeColor=inherit;" parent="ngzUgmsreJfInocwCasy-3" vertex="1"><mxGeometry y="66.76543209876543" width="332.79" height="12.54320987654321" as="geometry"/></mxCell><mxCell id="IL8WAM_x9eWzcNovHGls-12" value="+ receiveCAN_Message(canMessage: Message)" style="text;strokeColor=none;fillColor=none;align=left;verticalAlign=top;spacingLeft=4;spacingRight=4;overflow=hidden;rotatable=0;points=[[0,0.5],[1,0.5]];portConstraint=eastwest;whiteSpace=wrap;html=1;" parent="ngzUgmsreJfInocwCasy-3" vertex="1"><mxGeometry y="79.30864197530865" width="332.79" height="40.76543209876543" as="geometry"/></mxCell><mxCell id="IL8WAM_x9eWzcNovHGls-13" value="+ sendCAN_Message(canMessage: Message)" style="text;strokeColor=none;fillColor=none;align=left;verticalAlign=top;spacingLeft=4;spacingRight=4;overflow=hidden;rotatable=0;points=[[0,0.5],[1,0.5]];portConstraint=eastwest;whiteSpace=wrap;html=1;" parent="ngzUgmsreJfInocwCasy-3" vertex="1"><mxGeometry y="120.07407407407408" width="332.79" height="40.76543209876543" as="geometry"/></mxCell><mxCell id="IL8WAM_x9eWzcNovHGls-1" value="&lt;i&gt;Transceiver&lt;br&gt;&amp;lt;&amp;lt;interface&amp;gt;&amp;gt;&lt;br&gt;&lt;/i&gt;" style="swimlane;fontStyle=1;align=center;verticalAlign=top;childLayout=stackLayout;horizontal=1;startSize=40;horizontalStack=0;resizeParent=1;resizeParentMax=0;resizeLast=0;collapsible=1;marginBottom=0;whiteSpace=wrap;html=1;" parent="99" vertex="1"><mxGeometry x="40" y="29.78284958427816" width="366.88" height="134.07407407407408" as="geometry"/></mxCell><mxCell id="IL8WAM_x9eWzcNovHGls-3" value="" style="line;strokeWidth=1;fillColor=none;align=left;verticalAlign=middle;spacingTop=-1;spacingLeft=3;spacingRight=3;rotatable=0;labelPosition=right;points=[];portConstraint=eastwest;strokeColor=inherit;" parent="IL8WAM_x9eWzcNovHGls-1" vertex="1"><mxGeometry y="40" width="366.88" height="12.54320987654321" as="geometry"/></mxCell><mxCell id="IL8WAM_x9eWzcNovHGls-4" value="+ receiveMessage(callbackMethod: callable, bus: Bus, loop=True)&amp;nbsp;" style="text;strokeColor=none;fillColor=none;align=left;verticalAlign=top;spacingLeft=4;spacingRight=4;overflow=hidden;rotatable=0;points=[[0,0.5],[1,0.5]];portConstraint=eastwest;whiteSpace=wrap;html=1;" parent="IL8WAM_x9eWzcNovHGls-1" vertex="1"><mxGeometry y="52.54320987654321" width="366.88" height="40.76543209876543" as="geometry"/></mxCell><mxCell id="IL8WAM_x9eWzcNovHGls-5" value="+ sendMessage(bus: Bus, message: Message)" style="text;strokeColor=none;fillColor=none;align=left;verticalAlign=top;spacingLeft=4;spacingRight=4;overflow=hidden;rotatable=0;points=[[0,0.5],[1,0.5]];portConstraint=eastwest;whiteSpace=wrap;html=1;" parent="IL8WAM_x9eWzcNovHGls-1" vertex="1"><mxGeometry y="93.30864197530863" width="366.88" height="40.76543209876543" as="geometry"/></mxCell><mxCell id="IL8WAM_x9eWzcNovHGls-6" style="edgeStyle=orthogonalEdgeStyle;rounded=0;orthogonalLoop=1;jettySize=auto;html=1;dashed=1;endArrow=block;endFill=0;" parent="99" source="ngzUgmsreJfInocwCasy-3" target="IL8WAM_x9eWzcNovHGls-1" edge="1"><mxGeometry relative="1" as="geometry"><Array as="points"><mxPoint x="280" y="315"/><mxPoint x="280" y="315"/></Array></mxGeometry></mxCell><mxCell id="3" value="&lt;i&gt;BusReaderWriter&lt;/i&gt;&lt;i&gt;&lt;br&gt;&lt;/i&gt;" style="swimlane;fontStyle=1;align=center;verticalAlign=top;childLayout=stackLayout;horizontal=1;startSize=30;horizontalStack=0;resizeParent=1;resizeParentMax=0;resizeLast=0;collapsible=1;marginBottom=0;whiteSpace=wrap;html=1;" parent="99" vertex="1"><mxGeometry x="439.50000000000006" y="29.78692365835225" width="120.00000000000001" height="164.83950617283955" as="geometry"/></mxCell><mxCell id="110" value="- config" style="text;strokeColor=none;fillColor=none;align=left;verticalAlign=top;spacingLeft=4;spacingRight=4;overflow=hidden;rotatable=0;points=[[0,0.5],[1,0.5]];portConstraint=eastwest;whiteSpace=wrap;html=1;" vertex="1" parent="3"><mxGeometry y="30" width="120.00000000000001" height="40.76543209876544" as="geometry"/></mxCell><mxCell id="4" value="" style="line;strokeWidth=1;fillColor=none;align=left;verticalAlign=middle;spacingTop=-1;spacingLeft=3;spacingRight=3;rotatable=0;labelPosition=right;points=[];portConstraint=eastwest;strokeColor=inherit;" parent="3" vertex="1"><mxGeometry y="70.76543209876544" width="120.00000000000001" height="12.543209876543212" as="geometry"/></mxCell><mxCell id="8" value="+ send()" style="text;strokeColor=none;fillColor=none;align=left;verticalAlign=top;spacingLeft=4;spacingRight=4;overflow=hidden;rotatable=0;points=[[0,0.5],[1,0.5]];portConstraint=eastwest;whiteSpace=wrap;html=1;" parent="3" vertex="1"><mxGeometry y="83.30864197530866" width="120.00000000000001" height="40.76543209876544" as="geometry"/></mxCell><mxCell id="95" value="+ read()" style="text;strokeColor=none;fillColor=none;align=left;verticalAlign=top;spacingLeft=4;spacingRight=4;overflow=hidden;rotatable=0;points=[[0,0.5],[1,0.5]];portConstraint=eastwest;whiteSpace=wrap;html=1;" parent="3" vertex="1"><mxGeometry y="124.0740740740741" width="120.00000000000001" height="40.76543209876544" as="geometry"/></mxCell><mxCell id="98" style="edgeStyle=orthogonalEdgeStyle;rounded=0;orthogonalLoop=1;jettySize=auto;html=1;endArrow=block;endFill=0;dashed=1;" parent="99" source="19" target="3" edge="1"><mxGeometry relative="1" as="geometry"><Array as="points"><mxPoint x="590" y="231"/><mxPoint x="590" y="155"/></Array></mxGeometry></mxCell><mxCell id="19" value="ArduinoSerialBus" style="swimlane;fontStyle=1;align=center;verticalAlign=top;childLayout=stackLayout;horizontal=1;startSize=30;horizontalStack=0;resizeParent=1;resizeParentMax=0;resizeLast=0;collapsible=1;marginBottom=0;whiteSpace=wrap;html=1;" parent="99" vertex="1"><mxGeometry x="437.5" y="216.37" width="128" height="83.30864197530866" as="geometry"/></mxCell><mxCell id="20" value="" style="line;strokeWidth=1;fillColor=none;align=left;verticalAlign=middle;spacingTop=-1;spacingLeft=3;spacingRight=3;rotatable=0;labelPosition=right;points=[];portConstraint=eastwest;strokeColor=inherit;" parent="19" vertex="1"><mxGeometry y="30" width="128" height="12.543209876543216" as="geometry"/></mxCell><mxCell id="25" value="+ exitHandler()" style="text;strokeColor=none;fillColor=none;align=left;verticalAlign=top;spacingLeft=4;spacingRight=4;overflow=hidden;rotatable=0;points=[[0,0.5],[1,0.5]];portConstraint=eastwest;whiteSpace=wrap;html=1;" parent="19" vertex="1"><mxGeometry y="42.543209876543216" width="128" height="40.76543209876545" as="geometry"/></mxCell><mxCell id="30" style="edgeStyle=orthogonalEdgeStyle;rounded=0;orthogonalLoop=1;jettySize=auto;html=1;endArrow=none;endFill=0;" parent="99" source="ngzUgmsreJfInocwCasy-3" target="19" edge="1"><mxGeometry relative="1" as="geometry"><Array as="points"><mxPoint x="300" y="257.9165532879819"/></Array></mxGeometry></mxCell><mxCell id="78" value="&lt;i&gt;Bus&lt;/i&gt;&lt;i&gt;&lt;br&gt;&lt;/i&gt;" style="swimlane;fontStyle=1;align=center;verticalAlign=top;childLayout=stackLayout;horizontal=1;startSize=30;horizontalStack=0;resizeParent=1;resizeParentMax=0;resizeLast=0;collapsible=1;marginBottom=0;whiteSpace=wrap;html=1;" parent="99" vertex="1"><mxGeometry x="820" y="29.78465439785451" width="120.00000000000001" height="205.604938271605" as="geometry"/></mxCell><mxCell id="102" value="- config" style="text;strokeColor=none;fillColor=none;align=left;verticalAlign=top;spacingLeft=4;spacingRight=4;overflow=hidden;rotatable=0;points=[[0,0.5],[1,0.5]];portConstraint=eastwest;whiteSpace=wrap;html=1;" vertex="1" parent="78"><mxGeometry y="30" width="120.00000000000001" height="40.76543209876544" as="geometry"/></mxCell><mxCell id="79" value="" style="line;strokeWidth=1;fillColor=none;align=left;verticalAlign=middle;spacingTop=-1;spacingLeft=3;spacingRight=3;rotatable=0;labelPosition=right;points=[];portConstraint=eastwest;strokeColor=inherit;" parent="78" vertex="1"><mxGeometry y="70.76543209876544" width="120.00000000000001" height="12.543209876543209" as="geometry"/></mxCell><mxCell id="80" value="+ open()" style="text;strokeColor=none;fillColor=none;align=left;verticalAlign=top;spacingLeft=4;spacingRight=4;overflow=hidden;rotatable=0;points=[[0,0.5],[1,0.5]];portConstraint=eastwest;whiteSpace=wrap;html=1;" parent="78" vertex="1"><mxGeometry y="83.30864197530866" width="120.00000000000001" height="40.76543209876544" as="geometry"/></mxCell><mxCell id="81" value="+ close()" style="text;strokeColor=none;fillColor=none;align=left;verticalAlign=top;spacingLeft=4;spacingRight=4;overflow=hidden;rotatable=0;points=[[0,0.5],[1,0.5]];portConstraint=eastwest;whiteSpace=wrap;html=1;" parent="78" vertex="1"><mxGeometry y="124.0740740740741" width="120.00000000000001" height="40.76543209876544" as="geometry"/></mxCell><mxCell id="100" value="- setupBus()" style="text;strokeColor=none;fillColor=none;align=left;verticalAlign=top;spacingLeft=4;spacingRight=4;overflow=hidden;rotatable=0;points=[[0,0.5],[1,0.5]];portConstraint=eastwest;whiteSpace=wrap;html=1;" vertex="1" parent="78"><mxGeometry y="164.83950617283955" width="120.00000000000001" height="40.76543209876544" as="geometry"/></mxCell><mxCell id="91" style="edgeStyle=orthogonalEdgeStyle;rounded=0;orthogonalLoop=1;jettySize=auto;html=1;dashed=1;endArrow=block;endFill=0;" parent="99" source="86" target="78" edge="1"><mxGeometry relative="1" as="geometry"><Array as="points"><mxPoint x="790" y="263"/><mxPoint x="790" y="112"/></Array></mxGeometry></mxCell><mxCell id="86" value="SerialBusArduino&lt;i&gt;&lt;br&gt;&lt;/i&gt;" style="swimlane;fontStyle=1;align=center;verticalAlign=top;childLayout=stackLayout;horizontal=1;startSize=30;horizontalStack=0;resizeParent=1;resizeParentMax=0;resizeLast=0;collapsible=1;marginBottom=0;whiteSpace=wrap;html=1;" parent="99" vertex="1"><mxGeometry x="820" y="257.14" width="120" height="42.543209876543216" as="geometry"/></mxCell><mxCell id="87" value="" style="line;strokeWidth=1;fillColor=none;align=left;verticalAlign=middle;spacingTop=-1;spacingLeft=3;spacingRight=3;rotatable=0;labelPosition=right;points=[];portConstraint=eastwest;strokeColor=inherit;" parent="86" vertex="1"><mxGeometry y="30" width="120" height="12.543209876543212" as="geometry"/></mxCell><mxCell id="96" style="edgeStyle=orthogonalEdgeStyle;rounded=0;orthogonalLoop=1;jettySize=auto;html=1;endArrow=none;endFill=0;" parent="99" source="19" target="86" edge="1"><mxGeometry relative="1" as="geometry"><Array as="points"><mxPoint x="620.0000000000001" y="274.73469387755097"/><mxPoint x="620.0000000000001" y="274.73469387755097"/></Array></mxGeometry></mxCell><mxCell id="35" value="&lt;i&gt;CAN_Messsage&lt;br&gt;&lt;/i&gt;" style="swimlane;fontStyle=1;align=center;verticalAlign=top;childLayout=stackLayout;horizontal=1;startSize=30;horizontalStack=0;resizeParent=1;resizeParentMax=0;resizeLast=0;collapsible=1;marginBottom=0;whiteSpace=wrap;html=1;" parent="99" vertex="1"><mxGeometry x="434" y="441.28" width="129" height="83.30864197530866" as="geometry"/></mxCell><mxCell id="36" value="-canMessage" style="text;strokeColor=none;fillColor=none;align=left;verticalAlign=top;spacingLeft=4;spacingRight=4;overflow=hidden;rotatable=0;points=[[0,0.5],[1,0.5]];portConstraint=eastwest;whiteSpace=wrap;html=1;" parent="35" vertex="1"><mxGeometry y="30" width="129" height="40.76543209876545" as="geometry"/></mxCell><mxCell id="37" value="" style="line;strokeWidth=1;fillColor=none;align=left;verticalAlign=middle;spacingTop=-1;spacingLeft=3;spacingRight=3;rotatable=0;labelPosition=right;points=[];portConstraint=eastwest;strokeColor=inherit;" parent="35" vertex="1"><mxGeometry y="70.76543209876544" width="129" height="12.543209876543216" as="geometry"/></mxCell><mxCell id="136" style="edgeStyle=orthogonalEdgeStyle;rounded=0;orthogonalLoop=1;jettySize=auto;html=1;endArrow=none;endFill=0;" edge="1" parent="99" source="9" target="19"><mxGeometry relative="1" as="geometry"><Array as="points"><mxPoint x="502" y="350"/><mxPoint x="502" y="350"/></Array></mxGeometry></mxCell><mxCell id="9" value="&lt;i&gt;SerialMesssage&lt;br&gt;&lt;/i&gt;" style="swimlane;fontStyle=1;align=center;verticalAlign=top;childLayout=stackLayout;horizontal=1;startSize=30;horizontalStack=0;resizeParent=1;resizeParentMax=0;resizeLast=0;collapsible=1;marginBottom=0;whiteSpace=wrap;html=1;" parent="99" vertex="1"><mxGeometry x="434" y="363.75098874326875" width="131" height="71.13580246913583" as="geometry"/></mxCell><mxCell id="34" value="- serialMessage" style="text;strokeColor=none;fillColor=none;align=left;verticalAlign=top;spacingLeft=4;spacingRight=4;overflow=hidden;rotatable=0;points=[[0,0.5],[1,0.5]];portConstraint=eastwest;whiteSpace=wrap;html=1;" parent="9" vertex="1"><mxGeometry y="30" width="131" height="31.456790123456813" as="geometry"/></mxCell><mxCell id="10" value="" style="line;strokeWidth=1;fillColor=none;align=left;verticalAlign=middle;spacingTop=-1;spacingLeft=3;spacingRight=3;rotatable=0;labelPosition=right;points=[];portConstraint=eastwest;strokeColor=inherit;" parent="9" vertex="1"><mxGeometry y="61.45679012345681" width="131" height="9.679012345679018" as="geometry"/></mxCell><mxCell id="118" style="edgeStyle=orthogonalEdgeStyle;rounded=0;orthogonalLoop=1;jettySize=auto;html=1;endArrow=diamondThin;endFill=0;" edge="1" parent="99" source="111" target="3"><mxGeometry relative="1" as="geometry"/></mxCell><mxCell id="119" style="edgeStyle=orthogonalEdgeStyle;rounded=0;orthogonalLoop=1;jettySize=auto;html=1;endArrow=diamondThin;endFill=0;" edge="1" parent="99" source="111" target="19"><mxGeometry relative="1" as="geometry"><Array as="points"><mxPoint x="690" y="245"/></Array></mxGeometry></mxCell><mxCell id="111" value="BusReaderWriterConfig&#10;&lt;&lt;NamedTuple&gt;&gt;" style="swimlane;fontStyle=1;align=center;verticalAlign=top;childLayout=stackLayout;horizontal=1;startSize=42;horizontalStack=0;resizeParent=1;resizeParentMax=0;resizeLast=0;collapsible=1;marginBottom=0;" vertex="1" parent="99"><mxGeometry x="610" y="29.784849383570105" width="160" height="102" as="geometry"/></mxCell><mxCell id="115" value="+ bus: Bus" style="text;strokeColor=none;fillColor=none;align=left;verticalAlign=top;spacingLeft=4;spacingRight=4;overflow=hidden;rotatable=0;points=[[0,0.5],[1,0.5]];portConstraint=eastwest;" vertex="1" parent="111"><mxGeometry y="42" width="160" height="26" as="geometry"/></mxCell><mxCell id="112" value="+ messageType:Message" style="text;strokeColor=none;fillColor=none;align=left;verticalAlign=top;spacingLeft=4;spacingRight=4;overflow=hidden;rotatable=0;points=[[0,0.5],[1,0.5]];portConstraint=eastwest;" vertex="1" parent="111"><mxGeometry y="68" width="160" height="26" as="geometry"/></mxCell><mxCell id="113" value="" style="line;strokeWidth=1;fillColor=none;align=left;verticalAlign=middle;spacingTop=-1;spacingLeft=3;spacingRight=3;rotatable=0;labelPosition=right;points=[];portConstraint=eastwest;strokeColor=inherit;" vertex="1" parent="111"><mxGeometry y="94" width="160" height="8" as="geometry"/></mxCell><mxCell id="15" value="&lt;i&gt;Messsage&lt;br&gt;&amp;lt;&amp;lt;Protocol&amp;gt;&amp;gt;&lt;br&gt;&lt;/i&gt;" style="swimlane;fontStyle=1;align=center;verticalAlign=top;childLayout=stackLayout;horizontal=1;startSize=36;horizontalStack=0;resizeParent=1;resizeParentMax=0;resizeLast=0;collapsible=1;marginBottom=0;whiteSpace=wrap;html=1;" parent="99" vertex="1"><mxGeometry x="640" y="380.0056801012936" width="230.00000000000003" height="108.59259259259261" as="geometry"/></mxCell><mxCell id="16" value="" style="line;strokeWidth=1;fillColor=none;align=left;verticalAlign=middle;spacingTop=-1;spacingLeft=3;spacingRight=3;rotatable=0;labelPosition=right;points=[];portConstraint=eastwest;strokeColor=inherit;" parent="15" vertex="1"><mxGeometry y="36" width="230.00000000000003" height="9.679012345679013" as="geometry"/></mxCell><mxCell id="17" value="+ encode(message) -&amp;gt; encodedMessage" style="text;strokeColor=none;fillColor=none;align=left;verticalAlign=top;spacingLeft=4;spacingRight=4;overflow=hidden;rotatable=0;points=[[0,0.5],[1,0.5]];portConstraint=eastwest;whiteSpace=wrap;html=1;" parent="15" vertex="1"><mxGeometry y="45.67901234567901" width="230.00000000000003" height="31.4567901234568" as="geometry"/></mxCell><mxCell id="18" value="+ decode(message) -&amp;gt; decodedMessage" style="text;strokeColor=none;fillColor=none;align=left;verticalAlign=top;spacingLeft=4;spacingRight=4;overflow=hidden;rotatable=0;points=[[0,0.5],[1,0.5]];portConstraint=eastwest;whiteSpace=wrap;html=1;" parent="15" vertex="1"><mxGeometry y="77.13580246913581" width="230.00000000000003" height="31.4567901234568" as="geometry"/></mxCell><mxCell id="29" style="edgeStyle=orthogonalEdgeStyle;rounded=0;orthogonalLoop=1;jettySize=auto;html=1;endArrow=block;endFill=0;dashed=1;" parent="99" source="9" target="15" edge="1"><mxGeometry relative="1" as="geometry"/></mxCell><mxCell id="38" style="edgeStyle=orthogonalEdgeStyle;rounded=0;orthogonalLoop=1;jettySize=auto;html=1;endArrow=block;endFill=0;endSize=6;dashed=1;" parent="99" source="35" target="15" edge="1"><mxGeometry relative="1" as="geometry"/></mxCell><mxCell id="126" style="edgeStyle=orthogonalEdgeStyle;rounded=0;orthogonalLoop=1;jettySize=auto;html=1;endArrow=classic;endFill=1;" edge="1" parent="99" source="120" target="ngzUgmsreJfInocwCasy-3"><mxGeometry relative="1" as="geometry"><Array as="points"><mxPoint x="135" y="335"/><mxPoint x="206" y="335"/></Array></mxGeometry></mxCell><mxCell id="127" value="produces" style="edgeLabel;html=1;align=center;verticalAlign=middle;resizable=0;points=[];" vertex="1" connectable="0" parent="126"><mxGeometry x="-0.4521" y="-2" relative="1" as="geometry"><mxPoint as="offset"/></mxGeometry></mxCell><mxCell id="128" style="edgeStyle=orthogonalEdgeStyle;rounded=0;orthogonalLoop=1;jettySize=auto;html=1;endArrow=classic;endFill=1;" edge="1" parent="99" source="120" target="19"><mxGeometry relative="1" as="geometry"><Array as="points"><mxPoint x="280" y="285"/><mxPoint x="280" y="285"/></Array></mxGeometry></mxCell><mxCell id="129" value="produces" style="edgeLabel;html=1;align=center;verticalAlign=middle;resizable=0;points=[];" vertex="1" connectable="0" parent="128"><mxGeometry x="0.297" y="-3" relative="1" as="geometry"><mxPoint x="16" y="-1" as="offset"/></mxGeometry></mxCell><mxCell id="130" style="edgeStyle=orthogonalEdgeStyle;rounded=0;orthogonalLoop=1;jettySize=auto;html=1;endArrow=classic;endFill=1;" edge="1" parent="99" source="120" target="86"><mxGeometry relative="1" as="geometry"><Array as="points"><mxPoint x="880" y="315"/></Array></mxGeometry></mxCell><mxCell id="131" value="produces" style="edgeLabel;html=1;align=center;verticalAlign=middle;resizable=0;points=[];" vertex="1" connectable="0" parent="130"><mxGeometry x="0.2145" y="-2" relative="1" as="geometry"><mxPoint as="offset"/></mxGeometry></mxCell><mxCell id="120" value="TransceiverFactory" style="swimlane;fontStyle=1;align=center;verticalAlign=top;childLayout=stackLayout;horizontal=1;startSize=26;horizontalStack=0;resizeParent=1;resizeParentMax=0;resizeLast=0;collapsible=1;marginBottom=0;" vertex="1" parent="99"><mxGeometry x="40" y="205" width="190" height="112" as="geometry"/></mxCell><mxCell id="122" value="" style="line;strokeWidth=1;fillColor=none;align=left;verticalAlign=middle;spacingTop=-1;spacingLeft=3;spacingRight=3;rotatable=0;labelPosition=right;points=[];portConstraint=eastwest;strokeColor=inherit;" vertex="1" parent="120"><mxGeometry y="26" width="190" height="8" as="geometry"/></mxCell><mxCell id="123" value="+ produceBus" style="text;strokeColor=none;fillColor=none;align=left;verticalAlign=top;spacingLeft=4;spacingRight=4;overflow=hidden;rotatable=0;points=[[0,0.5],[1,0.5]];portConstraint=eastwest;" vertex="1" parent="120"><mxGeometry y="34" width="190" height="26" as="geometry"/></mxCell><mxCell id="124" value="+ produceBusReaderWriter" style="text;strokeColor=none;fillColor=none;align=left;verticalAlign=top;spacingLeft=4;spacingRight=4;overflow=hidden;rotatable=0;points=[[0,0.5],[1,0.5]];portConstraint=eastwest;" vertex="1" parent="120"><mxGeometry y="60" width="190" height="26" as="geometry"/></mxCell><mxCell id="125" value="+ produceTransceiver" style="text;strokeColor=none;fillColor=none;align=left;verticalAlign=top;spacingLeft=4;spacingRight=4;overflow=hidden;rotatable=0;points=[[0,0.5],[1,0.5]];portConstraint=eastwest;" vertex="1" parent="120"><mxGeometry y="86" width="190" height="26" as="geometry"/></mxCell><mxCell id="135" style="edgeStyle=orthogonalEdgeStyle;rounded=0;orthogonalLoop=1;jettySize=auto;html=1;endArrow=none;endFill=0;" edge="1" parent="99" source="36" target="19"><mxGeometry relative="1" as="geometry"><Array as="points"><mxPoint x="422" y="492"/><mxPoint x="422" y="340"/><mxPoint x="502" y="340"/></Array></mxGeometry></mxCell><mxCell id="103" value="&lt;i&gt;BusConfig&lt;br&gt;&amp;lt;&amp;lt;NamedTuple&amp;gt;&amp;gt;&lt;br&gt;&lt;/i&gt;" style="swimlane;fontStyle=1;align=center;verticalAlign=top;childLayout=stackLayout;horizontal=1;startSize=44;horizontalStack=0;resizeParent=1;resizeParentMax=0;resizeLast=0;collapsible=1;marginBottom=0;whiteSpace=wrap;html=1;" vertex="1" parent="2"><mxGeometry x="980.0000000000001" y="22.06093348450497" width="120.00000000000001" height="178.83950617283955" as="geometry"/></mxCell><mxCell id="105" value="+ bus: any" style="text;strokeColor=none;fillColor=none;align=left;verticalAlign=top;spacingLeft=4;spacingRight=4;overflow=hidden;rotatable=0;points=[[0,0.5],[1,0.5]];portConstraint=eastwest;whiteSpace=wrap;html=1;" vertex="1" parent="103"><mxGeometry y="44" width="120.00000000000001" height="40.76543209876544" as="geometry"/></mxCell><mxCell id="106" value="+ port: str" style="text;strokeColor=none;fillColor=none;align=left;verticalAlign=top;spacingLeft=4;spacingRight=4;overflow=hidden;rotatable=0;points=[[0,0.5],[1,0.5]];portConstraint=eastwest;whiteSpace=wrap;html=1;" vertex="1" parent="103"><mxGeometry y="84.76543209876544" width="120.00000000000001" height="40.76543209876544" as="geometry"/></mxCell><mxCell id="107" value="+ baudRate: int" style="text;strokeColor=none;fillColor=none;align=left;verticalAlign=top;spacingLeft=4;spacingRight=4;overflow=hidden;rotatable=0;points=[[0,0.5],[1,0.5]];portConstraint=eastwest;whiteSpace=wrap;html=1;" vertex="1" parent="103"><mxGeometry y="125.53086419753089" width="120.00000000000001" height="40.76543209876544" as="geometry"/></mxCell><mxCell id="104" value="" style="line;strokeWidth=1;fillColor=none;align=left;verticalAlign=middle;spacingTop=-1;spacingLeft=3;spacingRight=3;rotatable=0;labelPosition=right;points=[];portConstraint=eastwest;strokeColor=inherit;" vertex="1" parent="103"><mxGeometry y="166.29629629629633" width="120.00000000000001" height="12.543209876543212" as="geometry"/></mxCell><mxCell id="108" style="edgeStyle=orthogonalEdgeStyle;rounded=0;orthogonalLoop=1;jettySize=auto;html=1;endArrow=diamondThin;endFill=0;" edge="1" parent="2" source="103" target="78"><mxGeometry relative="1" as="geometry"/></mxCell><mxCell id="109" style="edgeStyle=orthogonalEdgeStyle;rounded=0;orthogonalLoop=1;jettySize=auto;html=1;endArrow=diamondThin;endFill=0;" edge="1" parent="2" source="103" target="86"><mxGeometry relative="1" as="geometry"><Array as="points"><mxPoint x="1040" y="262"/></Array></mxGeometry></mxCell><mxCell id="31" value="" style="html=1;verticalAlign=bottom;labelBackgroundColor=none;endArrow=oval;endFill=0;endSize=19;rounded=0;" parent="32" source="IL8WAM_x9eWzcNovHGls-1" edge="1"><mxGeometry width="160" relative="1" as="geometry"><mxPoint x="229" y="156.7901234567901" as="sourcePoint"/><mxPoint x="210" y="20" as="targetPoint"/></mxGeometry></mxCell></root></mxGraphModel></diagram></mxfile>